<svg width="153" height="18" viewBox="0 0 153 18" fill="none" xmlns="http://www.w3.org/2000/svg">
<path d="M43.1 12.7455V3.70918C43.1 3.50312 43.0636 3.35766 42.9909 3.27282C42.9303 3.18797 42.8152 3.13948 42.6455 3.12736L41.5 2.96372V2.491C41.6212 2.52736 42.8939 2.54554 45.3182 2.54554C46.0333 2.54554 46.603 2.52736 47.0273 2.491V2.98191L45.8818 3.14554C45.7121 3.15766 45.5909 3.20009 45.5182 3.27282C45.4576 3.34554 45.4273 3.491 45.4273 3.70918V12.7455C45.4273 12.9637 45.4576 13.1031 45.5182 13.1637C45.5788 13.2243 45.7 13.2607 45.8818 13.2728L47.0273 13.3637V13.9819C46.7848 13.9577 46.4333 13.9395 45.9727 13.9274C45.5242 13.9152 44.9545 13.9092 44.2636 13.9092C43.5727 13.9092 42.997 13.9152 42.5364 13.9274C42.0879 13.9395 41.7424 13.9577 41.5 13.9819V13.3637L42.6455 13.2728C42.8273 13.2486 42.9485 13.2062 43.0091 13.1455C43.0697 13.0849 43.1 12.9516 43.1 12.7455Z" fill="url(#paint0_linear_352_1018)"/>
<path d="M56.9276 13.9637C56.2973 13.9274 55.5942 13.9092 54.8185 13.9092C54.0548 13.9092 53.3579 13.9274 52.7276 13.9637V13.5092L53.3639 13.3637C53.6306 13.3274 53.7639 13.091 53.7639 12.6546V9.60009C53.7639 9.33342 53.7518 9.10312 53.7276 8.90918C53.7154 8.70312 53.673 8.53342 53.6003 8.40009C53.5397 8.25463 53.4366 8.1516 53.2912 8.091C53.1579 8.01827 52.97 7.98191 52.7276 7.98191C52.4488 7.98191 52.1518 8.07282 51.8366 8.25463C51.5336 8.42433 51.2791 8.63039 51.073 8.87282V12.8546C51.073 13.0486 51.2185 13.1819 51.5094 13.2546L52.0366 13.5092V13.9637C51.867 13.9395 51.7033 13.9274 51.5457 13.9274C51.3882 13.9152 51.2003 13.9092 50.9821 13.9092H49.873C49.4851 13.9092 49.0912 13.9152 48.6912 13.9274C48.3033 13.9274 48.0185 13.9395 47.8366 13.9637V13.5092L48.6185 13.3274C48.7397 13.3031 48.8306 13.2486 48.8912 13.1637C48.9518 13.0789 48.9821 12.9516 48.9821 12.7819V9.20009C48.9821 8.82433 48.9033 8.56979 48.7457 8.43645C48.6003 8.30312 48.3336 8.20615 47.9457 8.14554V7.80009C48.1397 7.7516 48.3639 7.691 48.6185 7.61827C48.8851 7.54554 49.1457 7.45463 49.4003 7.34554C49.6548 7.22433 49.8912 7.08494 50.1094 6.92736C50.3276 6.75766 50.4912 6.55766 50.6003 6.32736H51.073V8.091C51.4366 7.64251 51.8306 7.291 52.2548 7.03645C52.6791 6.78191 53.1033 6.65463 53.5276 6.65463C54.2306 6.65463 54.7942 6.86069 55.2185 7.27282C55.6427 7.68494 55.8548 8.30918 55.8548 9.14554V12.6001C55.8548 12.8425 55.8851 13.0183 55.9457 13.1274C56.0063 13.2365 56.1276 13.3152 56.3094 13.3637L56.9276 13.5092V13.9637Z" fill="url(#paint1_linear_352_1018)"/>
<path d="M67.7139 13.9819C67.52 13.9577 67.2291 13.9395 66.8412 13.9274C66.4654 13.9152 66.0351 13.9092 65.5503 13.9092C65.0654 13.9092 64.6291 13.9152 64.2412 13.9274C63.8533 13.9395 63.5685 13.9577 63.3866 13.9819V13.5274L64.0776 13.3274C64.4533 13.2546 64.6412 13.0365 64.6412 12.6728V8.50918C64.6412 8.21827 64.5685 8.00615 64.423 7.87282C64.3018 7.76373 64.0776 7.66676 63.7503 7.58191V7.63645L61.1139 7.70918V12.1092C61.1139 12.8365 61.3685 13.2425 61.8776 13.3274L62.8776 13.5092V13.9637C62.1139 13.9274 61.3079 13.9092 60.4594 13.9092H59.8957C59.4836 13.9092 59.0715 13.9152 58.6594 13.9274C58.2473 13.9274 57.9503 13.9395 57.7685 13.9637V13.5274L58.3321 13.4001C58.5139 13.3637 58.6533 13.3274 58.7503 13.291C58.8473 13.2425 58.92 13.1819 58.9685 13.1092C59.017 13.0243 59.0473 12.9152 59.0594 12.7819C59.0715 12.6486 59.0776 12.4728 59.0776 12.2546V7.92736C58.8473 7.87888 58.4048 7.84251 57.7503 7.81827V7.54554C58.0412 7.42433 58.2715 7.3213 58.4412 7.23645C58.6109 7.13948 58.7382 7.05463 58.823 6.98191C58.92 6.90918 58.9806 6.83645 59.0048 6.76373C59.0291 6.691 59.0412 6.61221 59.0412 6.52736C59.0412 6.41827 59.0533 6.23039 59.0776 5.96373C59.1018 5.68494 59.1563 5.37585 59.2412 5.03645C59.3382 4.68494 59.4715 4.32736 59.6412 3.96372C59.8109 3.60009 60.0351 3.26676 60.3139 2.96372C60.6048 2.66069 60.9563 2.41221 61.3685 2.21827C61.7806 2.01221 62.2776 1.90918 62.8594 1.90918C62.9563 1.90918 63.0473 1.91524 63.1321 1.92736C63.2291 1.92736 63.326 1.93342 63.423 1.94554C63.8109 2.00615 64.1442 2.11524 64.423 2.27282C64.7018 2.43039 64.8412 2.67888 64.8412 3.01827C64.8412 3.35766 64.7503 3.63039 64.5685 3.83645C64.3988 4.04251 64.1442 4.14554 63.8048 4.14554C63.5382 4.14554 63.32 4.07888 63.1503 3.94554C62.9927 3.80009 62.8533 3.64857 62.7321 3.491C62.623 3.3213 62.526 3.16979 62.4412 3.03645C62.3563 2.891 62.2715 2.81827 62.1866 2.81827C61.8715 2.81827 61.6351 2.90918 61.4776 3.091C61.3321 3.26069 61.223 3.48494 61.1503 3.76373C61.0897 4.03039 61.0594 4.33342 61.0594 4.67282V6.491C61.0594 6.69706 61.0654 6.84857 61.0776 6.94554L63.7503 7.00009V7.07282L64.2412 6.90918C64.5079 6.81221 64.7685 6.70918 65.023 6.60009C65.2776 6.47888 65.5079 6.3516 65.7139 6.21827C65.9321 6.07282 66.1018 5.92736 66.223 5.78191C66.3079 5.78191 66.3866 5.78797 66.4594 5.80009C66.5321 5.80009 66.6109 5.80009 66.6957 5.80009V12.7274C66.6957 12.9092 66.72 13.0425 66.7685 13.1274C66.8291 13.2122 66.9382 13.2728 67.0957 13.3092L67.7139 13.5274V13.9819Z" fill="url(#paint2_linear_352_1018)"/>
<path d="M77.6307 13.9637C77.0004 13.9274 76.2973 13.9092 75.5216 13.9092C74.758 13.9092 74.061 13.9274 73.4307 13.9637V13.5092L74.067 13.3637C74.3337 13.3274 74.467 13.091 74.467 12.6546V9.60009C74.467 9.33342 74.4549 9.10312 74.4307 8.90918C74.4186 8.70312 74.3761 8.53342 74.3034 8.40009C74.2428 8.25463 74.1398 8.1516 73.9943 8.091C73.861 8.01827 73.6731 7.98191 73.4307 7.98191C73.1519 7.98191 72.8549 8.07282 72.5398 8.25463C72.2367 8.42433 71.9822 8.63039 71.7761 8.87282V12.8546C71.7761 13.0486 71.9216 13.1819 72.2125 13.2546L72.7398 13.5092V13.9637C72.5701 13.9395 72.4064 13.9274 72.2489 13.9274C72.0913 13.9152 71.9034 13.9092 71.6852 13.9092H70.5761C70.1883 13.9092 69.7943 13.9152 69.3943 13.9274C69.0064 13.9274 68.7216 13.9395 68.5398 13.9637V13.5092L69.3216 13.3274C69.4428 13.3031 69.5337 13.2486 69.5943 13.1637C69.6549 13.0789 69.6852 12.9516 69.6852 12.7819V9.20009C69.6852 8.82433 69.6064 8.56979 69.4489 8.43645C69.3034 8.30312 69.0367 8.20615 68.6489 8.14554V7.80009C68.8428 7.7516 69.067 7.691 69.3216 7.61827C69.5883 7.54554 69.8489 7.45463 70.1034 7.34554C70.358 7.22433 70.5943 7.08494 70.8125 6.92736C71.0307 6.75766 71.1943 6.55766 71.3034 6.32736H71.7761V8.091C72.1398 7.64251 72.5337 7.291 72.958 7.03645C73.3822 6.78191 73.8064 6.65463 74.2307 6.65463C74.9337 6.65463 75.4973 6.86069 75.9216 7.27282C76.3458 7.68494 76.558 8.30918 76.558 9.14554V12.6001C76.558 12.8425 76.5883 13.0183 76.6489 13.1274C76.7095 13.2365 76.8307 13.3152 77.0125 13.3637L77.6307 13.5092V13.9637Z" fill="url(#paint3_linear_352_1018)"/>
<path d="M80.6898 2.72736C81.0049 2.72736 81.2716 2.84857 81.4898 3.091C81.7201 3.3213 81.8352 3.59403 81.8352 3.90918C81.8352 4.18797 81.7201 4.44251 81.4898 4.67282C81.2716 4.90312 80.9989 5.01827 80.6716 5.01827C80.3564 5.01827 80.0898 4.91524 79.8716 4.70918C79.6655 4.491 79.5625 4.22433 79.5625 3.90918C79.5625 3.59403 79.6716 3.3213 79.8898 3.091C80.108 2.84857 80.3746 2.72736 80.6898 2.72736ZM82.5261 13.9819C82.3322 13.9577 82.0413 13.9395 81.6534 13.9274C81.2655 13.9152 80.8292 13.9092 80.3443 13.9092C79.8595 13.9092 79.4231 13.9152 79.0352 13.9274C78.6473 13.9395 78.3564 13.9577 78.1625 13.9819V13.5092L78.8534 13.3274C79.2292 13.2546 79.417 13.0304 79.417 12.6546V9.38191C79.417 9.091 79.3443 8.87888 79.1989 8.74554C79.0534 8.61221 78.7625 8.49706 78.3261 8.40009V7.96373C78.5322 7.91524 78.7686 7.84857 79.0352 7.76372C79.3019 7.66676 79.5625 7.56372 79.817 7.45463C80.0716 7.33342 80.308 7.20615 80.5261 7.07282C80.7443 6.92736 80.914 6.78191 81.0352 6.63645C81.1201 6.63645 81.1989 6.64251 81.2716 6.65463C81.3443 6.65463 81.4231 6.65463 81.508 6.65463V12.7092C81.508 12.891 81.5322 13.0304 81.5807 13.1274C81.6413 13.2122 81.7504 13.2728 81.908 13.3092L82.5261 13.5092V13.9819Z" fill="url(#paint4_linear_352_1018)"/>
<path d="M86.2229 5.14554H86.6229C86.6229 5.47282 86.6229 5.80009 86.6229 6.12736C86.635 6.44251 86.6411 6.76373 86.6411 7.091L88.9138 7.03645V7.891L86.6411 7.96373V11.2365C86.6411 11.7819 86.7077 12.1819 86.8411 12.4365C86.9744 12.6789 87.2532 12.8001 87.6774 12.8001C87.8592 12.8001 88.0592 12.7819 88.2774 12.7455C88.4956 12.6971 88.732 12.5637 88.9865 12.3455L89.1501 12.6001C89.0653 12.7698 88.9501 12.9516 88.8047 13.1455C88.6592 13.3274 88.4774 13.4971 88.2592 13.6546C88.0532 13.8122 87.8168 13.9455 87.5501 14.0546C87.2835 14.1516 86.9804 14.2001 86.6411 14.2001C85.9501 14.2001 85.435 14.0304 85.0956 13.691C84.7562 13.3395 84.5865 12.7455 84.5865 11.9092V8.00009C84.4168 8.00009 84.2532 8.00615 84.0956 8.01827C83.938 8.01827 83.7744 8.01827 83.6047 8.01827C83.435 8.01827 83.3441 7.93948 83.332 7.78191C83.332 7.62433 83.4168 7.50918 83.5865 7.43645C83.8532 7.32736 84.0956 7.21221 84.3138 7.091C84.5441 6.96979 84.732 6.84857 84.8774 6.72736C85.0471 6.59403 85.2714 6.39403 85.5501 6.12736C85.8411 5.86069 86.0653 5.53342 86.2229 5.14554Z" fill="url(#paint5_linear_352_1018)"/>
<path d="M93.2859 16.0001C93.0678 16.5455 92.7465 16.9395 92.3223 17.1819C91.9102 17.4243 91.4678 17.5455 90.995 17.5455C90.8617 17.5455 90.7284 17.5274 90.595 17.491C90.4617 17.4668 90.3465 17.4183 90.2496 17.3455C90.1647 17.2849 90.092 17.2062 90.0314 17.1092C89.9829 17.0243 89.9587 16.9213 89.9587 16.8001C89.9587 16.4607 90.0496 16.2365 90.2314 16.1274C90.4132 16.0304 90.6314 15.9819 90.8859 15.9819C91.1405 15.9819 91.4011 16.0122 91.6678 16.0728C91.9344 16.1455 92.1344 16.1819 92.2678 16.1819C92.3284 16.1819 92.4011 16.1516 92.4859 16.091C92.5708 16.0304 92.6556 15.9455 92.7405 15.8365C92.8253 15.7395 92.892 15.6183 92.9405 15.4728C93.0011 15.3274 93.0314 15.1698 93.0314 15.0001C93.0314 14.8546 93.0011 14.6607 92.9405 14.4183C92.8799 14.2122 92.8072 14.0061 92.7223 13.8001C92.6496 13.594 92.5768 13.4061 92.5041 13.2365L90.1223 8.00009C89.989 7.70918 89.8314 7.53342 89.6496 7.47282L89.2859 7.34554V6.891C90.8253 7.01221 92.1041 7.01221 93.1223 6.891V7.34554C92.795 7.34554 92.6193 7.37585 92.595 7.43645C92.5708 7.49706 92.5829 7.58797 92.6314 7.70918L94.2859 11.9092L95.7223 8.36373C95.7829 8.19403 95.8071 8.01827 95.795 7.83645C95.795 7.65463 95.692 7.53948 95.4859 7.491L94.4678 7.25463V6.891C95.5344 7.01221 96.6496 7.01221 97.8132 6.891V7.25463L97.2314 7.40009C97.1344 7.42433 97.0496 7.46069 96.9768 7.50918C96.9162 7.54554 96.8496 7.60615 96.7768 7.691C96.7162 7.76373 96.6496 7.87282 96.5768 8.01827C96.5162 8.1516 96.4435 8.32736 96.3587 8.54554L93.2859 16.0001Z" fill="url(#paint6_linear_352_1018)"/>
<path d="M102.649 2.54554C103.243 2.54554 103.74 2.54554 104.14 2.54554C104.54 2.53342 104.843 2.5213 105.049 2.50918L107.686 2.36372C107.916 2.3516 108.074 2.34554 108.158 2.34554C108.255 2.34554 108.328 2.34554 108.377 2.34554C108.946 2.34554 109.48 2.41221 109.977 2.54554C110.474 2.66676 110.904 2.86676 111.267 3.14554C111.631 3.41221 111.916 3.75766 112.122 4.18191C112.34 4.60615 112.449 5.10918 112.449 5.691C112.449 6.22433 112.34 6.691 112.122 7.091C111.916 7.491 111.637 7.83039 111.286 8.10918C110.946 8.37585 110.552 8.57585 110.104 8.70918C109.667 8.84251 109.225 8.90918 108.777 8.90918C108.425 8.90918 108.116 8.8607 107.849 8.76373C107.583 8.66676 107.334 8.50312 107.104 8.27282L107.14 8.10918C107.298 8.16979 107.467 8.21221 107.649 8.23645C107.831 8.24857 107.989 8.25463 108.122 8.25463C108.425 8.25463 108.698 8.21221 108.94 8.12736C109.195 8.04251 109.413 7.90918 109.595 7.72736C109.777 7.53342 109.916 7.27888 110.013 6.96373C110.122 6.64857 110.177 6.25463 110.177 5.78191C110.177 4.98191 109.977 4.33342 109.577 3.83645C109.189 3.32736 108.577 3.07282 107.74 3.07282C107.57 3.07282 107.425 3.07888 107.304 3.091C107.195 3.091 107.092 3.09706 106.995 3.10918C106.898 3.1213 106.813 3.13948 106.74 3.16373C106.68 3.17585 106.619 3.19403 106.558 3.21827V12.5455C106.558 12.7274 106.595 12.8849 106.667 13.0183C106.752 13.1395 106.928 13.2243 107.195 13.2728L108.286 13.4728V13.9819C107.777 13.9577 107.292 13.9395 106.831 13.9274C106.383 13.9152 105.995 13.9092 105.667 13.9092C105.292 13.9092 104.904 13.9152 104.504 13.9274C104.116 13.9395 103.619 13.9516 103.013 13.9637V13.4546L104.031 13.2546C104.213 13.2183 104.334 13.1516 104.395 13.0546C104.455 12.9577 104.486 12.794 104.486 12.5637V4.36372C104.486 3.90312 104.34 3.59403 104.049 3.43645C103.771 3.27888 103.304 3.16372 102.649 3.091V2.54554Z" fill="url(#paint7_linear_352_1018)"/>
<path d="M116.199 14.1819C115.702 14.1819 115.272 14.0971 114.908 13.9274C114.557 13.7455 114.266 13.5031 114.036 13.2001C113.817 12.8971 113.654 12.5395 113.545 12.1274C113.436 11.7152 113.381 11.2728 113.381 10.8001C113.381 10.1577 113.478 9.58797 113.672 9.091C113.866 8.59403 114.126 8.17585 114.454 7.83645C114.781 7.49706 115.163 7.24251 115.599 7.07282C116.036 6.891 116.496 6.80009 116.981 6.80009C117.32 6.80009 117.617 6.82433 117.872 6.87282C118.126 6.9213 118.339 6.97585 118.508 7.03645C118.726 7.09706 118.896 7.16979 119.017 7.25463L120.217 6.58191L120.381 6.63645V12.2365C120.381 12.7092 120.587 12.9395 120.999 12.9274C121.096 12.9274 121.169 12.9152 121.217 12.891C121.278 12.8546 121.332 12.8243 121.381 12.8001C121.417 12.7758 121.46 12.7395 121.508 12.691L121.617 12.9455C121.532 13.1758 121.405 13.3819 121.236 13.5637C121.102 13.7213 120.92 13.8668 120.69 14.0001C120.472 14.1213 120.199 14.1819 119.872 14.1819C119.326 14.1819 118.945 14.0243 118.726 13.7092C118.508 13.3819 118.399 12.988 118.399 12.5274V12.091C118.339 12.3577 118.254 12.6183 118.145 12.8728C118.036 13.1152 117.89 13.3334 117.708 13.5274C117.539 13.7213 117.326 13.8789 117.072 14.0001C116.829 14.1213 116.539 14.1819 116.199 14.1819ZM118.399 10.0001C118.399 9.74554 118.387 9.47888 118.363 9.20009C118.339 8.9213 118.284 8.66676 118.199 8.43645C118.114 8.19403 117.981 7.99403 117.799 7.83645C117.629 7.67888 117.393 7.60009 117.09 7.60009C116.92 7.60009 116.739 7.64857 116.545 7.74554C116.363 7.83039 116.193 7.97585 116.036 8.18191C115.878 8.38797 115.745 8.67282 115.636 9.03645C115.539 9.38797 115.49 9.82433 115.49 10.3455C115.49 10.7092 115.514 11.0546 115.563 11.3819C115.623 11.7092 115.714 11.994 115.836 12.2365C115.957 12.4789 116.102 12.6728 116.272 12.8183C116.454 12.9516 116.666 13.0183 116.908 13.0183C117.139 13.0183 117.345 12.9395 117.526 12.7819C117.72 12.6243 117.878 12.4183 117.999 12.1637C118.132 11.8971 118.229 11.594 118.29 11.2546C118.363 10.9152 118.399 10.5637 118.399 10.2001V10.0001Z" fill="url(#paint8_linear_352_1018)"/>
<path d="M122.431 13.9819V13.691L122.976 13.5274C123.219 13.4546 123.37 13.3637 123.431 13.2546C123.504 13.1334 123.54 12.9152 123.54 12.6001V9.10918C123.54 8.86676 123.491 8.68494 123.394 8.56373C123.297 8.44251 123.067 8.35766 122.704 8.30918L122.394 8.27282V7.92736C122.625 7.86676 122.873 7.78797 123.14 7.691C123.419 7.58191 123.685 7.46069 123.94 7.32736C124.207 7.18191 124.449 7.01827 124.667 6.83645C124.897 6.65463 125.085 6.45463 125.231 6.23645H125.558C125.558 6.58797 125.564 6.91524 125.576 7.21827C125.588 7.5213 125.607 7.87282 125.631 8.27282C125.728 8.06676 125.819 7.88494 125.904 7.72736C126.001 7.56979 126.146 7.37585 126.34 7.14554C126.522 6.92736 126.71 6.79403 126.904 6.74554C127.097 6.68494 127.273 6.65463 127.431 6.65463C127.734 6.65463 128.001 6.74554 128.231 6.92736C128.461 7.10918 128.576 7.41221 128.576 7.83645C128.576 8.22433 128.491 8.53948 128.322 8.78191C128.152 9.01221 127.897 9.12736 127.558 9.12736C127.388 9.12736 127.243 9.07888 127.122 8.98191C127.013 8.88494 126.916 8.78191 126.831 8.67282C126.746 8.56373 126.667 8.4607 126.594 8.36373C126.534 8.26676 126.467 8.21827 126.394 8.21827C126.225 8.21827 126.073 8.33342 125.94 8.56373C125.819 8.79403 125.734 9.07888 125.685 9.41827C125.625 9.70918 125.607 9.93948 125.631 10.1092V12.6365C125.631 12.9152 125.685 13.1031 125.794 13.2001C125.904 13.2971 126.122 13.394 126.449 13.491L127.049 13.6728V13.9637C126.782 13.9395 126.479 13.9274 126.14 13.9274C125.801 13.9152 125.479 13.9092 125.176 13.9092H124.758C124.358 13.9092 123.958 13.9152 123.558 13.9274C123.158 13.9395 122.782 13.9577 122.431 13.9819Z" fill="url(#paint9_linear_352_1018)"/>
<path d="M138.589 13.9819C138.359 13.9577 138.031 13.9395 137.607 13.9274C137.195 13.9152 136.777 13.9092 136.353 13.9092C135.928 13.9092 135.522 13.9152 135.134 13.9274C134.759 13.9395 134.456 13.9577 134.225 13.9819V13.5092L134.716 13.4365C134.983 13.4001 135.116 13.3455 135.116 13.2728C135.116 13.1758 135.013 12.988 134.807 12.7092C134.613 12.4304 134.322 12.0365 133.934 11.5274C133.74 11.2849 133.546 11.0728 133.353 10.891C133.171 10.6971 132.989 10.6001 132.807 10.6001H132.643V12.6365C132.643 12.9395 132.674 13.1334 132.734 13.2183C132.807 13.291 132.928 13.3455 133.098 13.3819L133.607 13.5092V13.9819C133.51 13.9698 133.377 13.9577 133.207 13.9455C133.05 13.9334 132.868 13.9274 132.662 13.9274C132.468 13.9152 132.262 13.9092 132.043 13.9092C131.837 13.9092 131.637 13.9092 131.443 13.9092C131.056 13.9092 130.662 13.9152 130.262 13.9274C129.862 13.9395 129.565 13.9577 129.371 13.9819V13.5092L130.043 13.4001C130.262 13.3637 130.401 13.3092 130.462 13.2365C130.522 13.1516 130.553 12.9516 130.553 12.6365V3.96372C130.553 3.81827 130.54 3.70312 130.516 3.61827C130.492 3.53342 130.437 3.46676 130.353 3.41827C130.28 3.35766 130.171 3.30918 130.025 3.27282C129.88 3.23645 129.68 3.20009 129.425 3.16373V2.72736C129.583 2.691 129.789 2.64857 130.043 2.60009C130.31 2.5516 130.583 2.49706 130.862 2.43645C131.153 2.36373 131.431 2.28494 131.698 2.20009C131.965 2.11524 132.183 2.01827 132.353 1.90918H132.643V9.92736C132.765 9.92736 132.874 9.91524 132.971 9.891C133.08 9.85463 133.189 9.80009 133.298 9.72736C133.407 9.65463 133.528 9.56373 133.662 9.45463C133.795 9.33342 133.965 9.18797 134.171 9.01827C134.583 8.691 134.868 8.46069 135.025 8.32736C135.183 8.18191 135.262 8.05463 135.262 7.94554C135.262 7.691 134.874 7.50918 134.098 7.40009V6.98191H137.971V7.40009C137.547 7.44857 137.14 7.5516 136.753 7.70918C136.377 7.85463 136.031 8.07282 135.716 8.36373L134.571 9.25463C134.825 9.58191 135.104 9.9516 135.407 10.3637C135.71 10.7758 136.007 11.1758 136.298 11.5637C136.601 11.9516 136.892 12.3031 137.171 12.6183C137.462 12.9213 137.716 13.1334 137.934 13.2546C137.995 13.291 138.05 13.3213 138.098 13.3455C138.159 13.3577 138.213 13.3758 138.262 13.4001L138.589 13.5092V13.9819Z" fill="url(#paint10_linear_352_1018)"/>
<path d="M145.69 9.63645H141.181C141.157 9.75766 141.138 9.83039 141.126 9.85463C141.126 9.87888 141.126 9.9516 141.126 10.0728C141.126 10.4607 141.181 10.8183 141.29 11.1455C141.399 11.4607 141.551 11.7395 141.744 11.9819C141.951 12.2122 142.193 12.394 142.472 12.5274C142.751 12.6607 143.066 12.7274 143.417 12.7274C143.841 12.7274 144.229 12.6728 144.581 12.5637C144.944 12.4425 145.326 12.188 145.726 11.8001L145.799 12.0728C145.654 12.3516 145.484 12.6183 145.29 12.8728C145.108 13.1274 144.884 13.3516 144.617 13.5455C144.351 13.7395 144.035 13.8971 143.672 14.0183C143.32 14.1395 142.902 14.2001 142.417 14.2001C141.908 14.2001 141.441 14.1152 141.017 13.9455C140.593 13.7637 140.229 13.5092 139.926 13.1819C139.635 12.8546 139.405 12.4607 139.235 12.0001C139.078 11.5395 138.999 11.0243 138.999 10.4546C138.999 9.88494 139.084 9.36979 139.254 8.90918C139.435 8.43645 139.684 8.03645 139.999 7.70918C140.326 7.36979 140.72 7.10918 141.181 6.92736C141.641 6.74554 142.157 6.65463 142.726 6.65463C143.247 6.65463 143.69 6.73342 144.054 6.891C144.417 7.04857 144.714 7.26676 144.944 7.54554C145.187 7.81221 145.363 8.12736 145.472 8.491C145.593 8.85463 145.666 9.23645 145.69 9.63645ZM141.272 8.96373H142.981C143.308 8.96373 143.472 8.80615 143.472 8.491C143.472 8.13948 143.417 7.84251 143.308 7.60009C143.199 7.34554 142.981 7.21827 142.654 7.21827C141.963 7.21827 141.502 7.80009 141.272 8.96373Z" fill="url(#paint11_linear_352_1018)"/>
<path d="M146.703 13.9819V13.691L147.248 13.5274C147.491 13.4546 147.642 13.3637 147.703 13.2546C147.776 13.1334 147.812 12.9152 147.812 12.6001V9.10918C147.812 8.86676 147.763 8.68494 147.666 8.56373C147.57 8.44251 147.339 8.35766 146.976 8.30918L146.666 8.27282V7.92736C146.897 7.86676 147.145 7.78797 147.412 7.691C147.691 7.58191 147.957 7.46069 148.212 7.32736C148.479 7.18191 148.721 7.01827 148.939 6.83645C149.17 6.65463 149.357 6.45463 149.503 6.23645H149.83C149.83 6.58797 149.836 6.91524 149.848 7.21827C149.86 7.5213 149.879 7.87282 149.903 8.27282C150 8.06676 150.091 7.88494 150.176 7.72736C150.273 7.56979 150.418 7.37585 150.612 7.14554C150.794 6.92736 150.982 6.79403 151.176 6.74554C151.37 6.68494 151.545 6.65463 151.703 6.65463C152.006 6.65463 152.273 6.74554 152.503 6.92736C152.733 7.10918 152.848 7.41221 152.848 7.83645C152.848 8.22433 152.763 8.53948 152.594 8.78191C152.424 9.01221 152.17 9.12736 151.83 9.12736C151.66 9.12736 151.515 9.07888 151.394 8.98191C151.285 8.88494 151.188 8.78191 151.103 8.67282C151.018 8.56373 150.939 8.4607 150.866 8.36373C150.806 8.26676 150.739 8.21827 150.666 8.21827C150.497 8.21827 150.345 8.33342 150.212 8.56373C150.091 8.79403 150.006 9.07888 149.957 9.41827C149.897 9.70918 149.879 9.93948 149.903 10.1092V12.6365C149.903 12.9152 149.957 13.1031 150.066 13.2001C150.176 13.2971 150.394 13.394 150.721 13.491L151.321 13.6728V13.9637C151.054 13.9395 150.751 13.9274 150.412 13.9274C150.073 13.9152 149.751 13.9092 149.448 13.9092H149.03C148.63 13.9092 148.23 13.9152 147.83 13.9274C147.43 13.9395 147.054 13.9577 146.703 13.9819Z" fill="url(#paint12_linear_352_1018)"/>
<path d="M9.25 0C3.51875 0 0.5 4.41875 0.5 8.75C0.5 13.0813 3.51875 17.5 9.25 17.5C12.7063 17.5 15.4625 15.05 18 12.1625C20.5375 15.05 23.2062 17.5 26.75 17.5C32.4812 17.5 35.5 13.0813 35.5 8.75C35.5 4.41875 32.4812 0 26.75 0C23.2062 0 20.5375 2.45 18 5.3375C15.4625 2.45 12.7063 0 9.25 0ZM9.25 4.375C11.0875 4.375 13.1 6.43125 15.1125 8.75C13.1 11.0687 11.0875 13.125 9.25 13.125C6.0125 13.125 4.875 10.7625 4.875 8.75C4.875 6.7375 6.0125 4.375 9.25 4.375ZM26.75 4.375C29.9875 4.375 31.125 6.7375 31.125 8.75C31.125 10.7625 29.9875 13.125 26.75 13.125C24.8687 13.125 22.8562 11.0687 20.8875 8.75C22.9 6.43125 24.8687 4.375 26.75 4.375Z" fill="#8B7EFF"/>
<path d="M11.5 8.5C11.5 8.5 10.6046 10 9.5 10C8.39543 10 7.5 9.32843 7.5 8.5C7.5 7.67157 8.39543 7 9.5 7C10.6046 7 11.5 8.5 11.5 8.5Z" fill="#8B7EFF"/>
<path d="M24.5 8.5C24.5 8.5 25.3954 7 26.5 7C27.6046 7 28.5 7.67157 28.5 8.5C28.5 9.32843 27.6046 10 26.5 10C25.3954 10 24.5 8.5 24.5 8.5Z" fill="#8B7EFF"/>
<defs>
<linearGradient id="paint0_linear_352_1018" x1="41.5" y1="9.72736" x2="152.848" y2="9.72736" gradientUnits="userSpaceOnUse">
<stop stop-color="#8B7EFF"/>
<stop offset="1" stop-color="white"/>
</linearGradient>
<linearGradient id="paint1_linear_352_1018" x1="41.5" y1="9.72736" x2="152.848" y2="9.72736" gradientUnits="userSpaceOnUse">
<stop stop-color="#8B7EFF"/>
<stop offset="1" stop-color="white"/>
</linearGradient>
<linearGradient id="paint2_linear_352_1018" x1="41.5" y1="9.72736" x2="152.848" y2="9.72736" gradientUnits="userSpaceOnUse">
<stop stop-color="#8B7EFF"/>
<stop offset="1" stop-color="white"/>
</linearGradient>
<linearGradient id="paint3_linear_352_1018" x1="41.5" y1="9.72736" x2="152.848" y2="9.72736" gradientUnits="userSpaceOnUse">
<stop stop-color="#8B7EFF"/>
<stop offset="1" stop-color="white"/>
</linearGradient>
<linearGradient id="paint4_linear_352_1018" x1="41.5" y1="9.72736" x2="152.848" y2="9.72736" gradientUnits="userSpaceOnUse">
<stop stop-color="#8B7EFF"/>
<stop offset="1" stop-color="white"/>
</linearGradient>
<linearGradient id="paint5_linear_352_1018" x1="41.5" y1="9.72736" x2="152.848" y2="9.72736" gradientUnits="userSpaceOnUse">
<stop stop-color="#8B7EFF"/>
<stop offset="1" stop-color="white"/>
</linearGradient>
<linearGradient id="paint6_linear_352_1018" x1="41.5" y1="9.72736" x2="152.848" y2="9.72736" gradientUnits="userSpaceOnUse">
<stop stop-color="#8B7EFF"/>
<stop offset="1" stop-color="white"/>
</linearGradient>
<linearGradient id="paint7_linear_352_1018" x1="41.5" y1="9.72736" x2="152.848" y2="9.72736" gradientUnits="userSpaceOnUse">
<stop stop-color="#8B7EFF"/>
<stop offset="1" stop-color="white"/>
</linearGradient>
<linearGradient id="paint8_linear_352_1018" x1="41.5" y1="9.72736" x2="152.848" y2="9.72736" gradientUnits="userSpaceOnUse">
<stop stop-color="#8B7EFF"/>
<stop offset="1" stop-color="white"/>
</linearGradient>
<linearGradient id="paint9_linear_352_1018" x1="41.5" y1="9.72736" x2="152.848" y2="9.72736" gradientUnits="userSpaceOnUse">
<stop stop-color="#8B7EFF"/>
<stop offset="1" stop-color="white"/>
</linearGradient>
<linearGradient id="paint10_linear_352_1018" x1="41.5" y1="9.72736" x2="152.848" y2="9.72736" gradientUnits="userSpaceOnUse">
<stop stop-color="#8B7EFF"/>
<stop offset="1" stop-color="white"/>
</linearGradient>
<linearGradient id="paint11_linear_352_1018" x1="41.5" y1="9.72736" x2="152.848" y2="9.72736" gradientUnits="userSpaceOnUse">
<stop stop-color="#8B7EFF"/>
<stop offset="1" stop-color="white"/>
</linearGradient>
<linearGradient id="paint12_linear_352_1018" x1="41.5" y1="9.72736" x2="152.848" y2="9.72736" gradientUnits="userSpaceOnUse">
<stop stop-color="#8B7EFF"/>
<stop offset="1" stop-color="white"/>
</linearGradient>
</defs>
</svg>
